<svg xmlns="http://www.w3.org/2000/svg" viewBox="0 0 1440 700" font-family="Noto Sans CJK KR, NanumGothic, sans-serif">
<defs><pattern id="hz" width="8" height="8" patternTransform="rotate(45)"
 patternUnits="userSpaceOnUse"><line x1="0" y1="0" x2="0" y2="8" stroke="#000" stroke-width="1"/></pattern><marker id="ar" viewBox="0 0 10 10" refX="9" refY="5" markerWidth="7" markerHeight="7"
 orient="auto-start-reverse"><path d="M0,0 L10,5 L0,10 z" fill="#000"/></marker>
<marker id="arS" viewBox="0 0 10 10" refX="9" refY="5" markerWidth="5" markerHeight="5"
 orient="auto-start-reverse"><path d="M0,0 L10,5 L0,10 z" fill="#000"/></marker>
<marker id="tk" viewBox="0 0 10 10" refX="5" refY="5" markerWidth="6" markerHeight="6"
 orient="auto"><line x1="2" y1="8" x2="8" y2="2" stroke="#000" stroke-width="1.6"/></marker></defs>
<rect width="1440" height="700" fill="#fff"/>
<text x="70" y="38" font-size="19" fill="#000" font-weight="bold">139-3-F-P01  PSC 합성거더 — 구조계 · 단면 · 하중 단계</text>
<text x="70" y="60" font-size="12" fill="#444">긴장은 바닥판 합성 이전에 도입 · 직선 배치 · 응력은 총단면 탄성계산(압축 +)</text>
<text x="90" y="132" font-size="15" fill="#000" text-anchor="start" font-weight="bold" font-style="normal">① 측면도 (지간 30 m 단순 PSC 합성거더)</text>
<line x1="90" y1="204" x2="690" y2="204" stroke="#000" stroke-width="1.6"/>
<line x1="90.0" y1="206" x2="90.0" y2="242" stroke="#000" stroke-width="1.3" marker-end="url(#arS)"/>
<line x1="140.0" y1="206" x2="140.0" y2="242" stroke="#000" stroke-width="1.3" marker-end="url(#arS)"/>
<line x1="190.0" y1="206" x2="190.0" y2="242" stroke="#000" stroke-width="1.3" marker-end="url(#arS)"/>
<line x1="240.0" y1="206" x2="240.0" y2="242" stroke="#000" stroke-width="1.3" marker-end="url(#arS)"/>
<line x1="290.0" y1="206" x2="290.0" y2="242" stroke="#000" stroke-width="1.3" marker-end="url(#arS)"/>
<line x1="340.0" y1="206" x2="340.0" y2="242" stroke="#000" stroke-width="1.3" marker-end="url(#arS)"/>
<line x1="390.0" y1="206" x2="390.0" y2="242" stroke="#000" stroke-width="1.3" marker-end="url(#arS)"/>
<line x1="440.0" y1="206" x2="440.0" y2="242" stroke="#000" stroke-width="1.3" marker-end="url(#arS)"/>
<line x1="490.0" y1="206" x2="490.0" y2="242" stroke="#000" stroke-width="1.3" marker-end="url(#arS)"/>
<line x1="540.0" y1="206" x2="540.0" y2="242" stroke="#000" stroke-width="1.3" marker-end="url(#arS)"/>
<line x1="590.0" y1="206" x2="590.0" y2="242" stroke="#000" stroke-width="1.3" marker-end="url(#arS)"/>
<line x1="640.0" y1="206" x2="640.0" y2="242" stroke="#000" stroke-width="1.3" marker-end="url(#arS)"/>
<line x1="690.0" y1="206" x2="690.0" y2="242" stroke="#000" stroke-width="1.3" marker-end="url(#arS)"/>
<text x="90" y="194" font-size="13" fill="#000" text-anchor="start" font-weight="bold" font-style="normal">w<tspan font-size="9" dy="4">1</tspan><tspan font-size="13" dy="-4"> </tspan> = 25 kN/m  (합성 전: 자중+바닥판)</text>
<rect x="90" y="248" width="600" height="22" fill="#f2f2f2" stroke="#000" stroke-width="1.6" rx="0"/>
<rect x="90" y="248" width="600" height="22" fill="none" stroke="#000" stroke-width="1.6" stroke-dasharray="7 4"/>
<text x="700" y="264" font-size="12" fill="#444" text-anchor="start" font-weight="normal" font-style="normal">바닥판 (합성 후 추가)</text>
<rect x="90" y="300" width="600" height="46" fill="#fff" stroke="#000" stroke-width="2" rx="0"/>
<line x1="64" y1="332" x2="716" y2="332" stroke="#c00" stroke-width="2.6"/>
<text x="390.0" y="402" font-size="12" fill="#c00" text-anchor="middle" font-weight="bold" font-style="normal">직선 긴장재 (전 구간 e 일정)</text>
<line x1="22" y1="332" x2="64" y2="332" stroke="#c00" stroke-width="2.6" marker-end="url(#ar)"/>
<text x="16" y="320" font-size="14" fill="#c00" text-anchor="middle" font-weight="bold" font-style="normal">P<tspan font-size="9" dy="4">i</tspan><tspan font-size="13" dy="-4"> </tspan></text>
<line x1="758" y1="332" x2="716" y2="332" stroke="#c00" stroke-width="2.6" marker-end="url(#ar)"/>
<text x="764" y="320" font-size="14" fill="#c00" text-anchor="middle" font-weight="bold" font-style="normal">P<tspan font-size="9" dy="4">i</tspan><tspan font-size="13" dy="-4"> </tspan></text>
<polygon points="104,346 93,362.5 115,362.5" fill="none" stroke="#000" stroke-width="2"/>
<line x1="87.5" y1="362.5" x2="120.5" y2="362.5" stroke="#000" stroke-width="2"/>
<circle cx="676" cy="356" r="10" fill="none" stroke="#000" stroke-width="2"/>
<line x1="660.0" y1="366" x2="692.0" y2="366" stroke="#000" stroke-width="2"/>
<line x1="90" y1="432" x2="690" y2="432" stroke="#000" stroke-width="1.3"/>
<line x1="90" y1="432" x2="690" y2="432" stroke="#000" stroke-width="1.3" marker-start="url(#arS)" marker-end="url(#arS)"/>
<line x1="90" y1="426" x2="90" y2="438" stroke="#000" stroke-width="1.3"/>
<line x1="690" y1="426" x2="690" y2="438" stroke="#000" stroke-width="1.3"/>
<text x="390.0" y="425.7" font-size="13" fill="#000" text-anchor="middle" font-weight="bold" font-style="italic">L = 30 m</text>
<line x1="90" y1="372" x2="90" y2="426" stroke="#888" stroke-width="1" stroke-dasharray="3 3"/>
<line x1="690" y1="372" x2="690" y2="426" stroke="#888" stroke-width="1" stroke-dasharray="3 3"/>
<text x="846" y="132" font-size="15" fill="#000" text-anchor="start" font-weight="bold" font-style="normal">② 단면도 — 합성 전 / 합성 후 (하연 기준선 공통)</text>
<polygon points="886,280 1034,280 1034,314 978,342 978,418 1042,446 1042,470 878,470 878,446 942,418 942,342 886,314" fill="#fff" stroke="#000" stroke-width="2"/>
<polygon points="1211,280 1359,280 1359,314 1303,342 1303,418 1367,446 1367,470 1203,470 1203,446 1267,418 1267,342 1211,314" fill="#fff" stroke="#000" stroke-width="2"/>
<rect x="1177" y="240" width="216" height="40" fill="#eeeeee" stroke="#000" stroke-width="2" rx="0"/>
<text x="960" y="504" font-size="14" fill="#000" text-anchor="middle" font-weight="bold" font-style="normal">합성 전 단면</text>
<text x="1285" y="504" font-size="14" fill="#000" text-anchor="middle" font-weight="bold" font-style="normal">합성 후 단면 (바닥판 포함)</text>
<text x="1285" y="230" font-size="12" fill="#444" text-anchor="middle" font-weight="normal" font-style="normal">바닥판</text>
<line x1="810" y1="470" x2="1435" y2="470" stroke="#888" stroke-width="1.2" stroke-dasharray="6 4"/>
<text x="804" y="475" font-size="11" fill="#444" text-anchor="end" font-weight="normal" font-style="normal">하연</text>
<line x1="830" y1="340" x2="1056" y2="340" stroke="#333" stroke-width="1.4" stroke-dasharray="5 4"/>
<text x="1060" y="336" font-size="11" fill="#333" text-anchor="start" font-weight="normal" font-style="normal">도심</text>
<line x1="830" y1="470" x2="876" y2="470" stroke="#888" stroke-width="1" stroke-dasharray="3 3"/>
<line x1="838" y1="340" x2="838" y2="470" stroke="#000" stroke-width="1.3" marker-start="url(#arS)" marker-end="url(#arS)"/>
<line x1="832" y1="340" x2="844" y2="340" stroke="#000" stroke-width="1.3"/>
<line x1="832" y1="470" x2="844" y2="470" stroke="#000" stroke-width="1.3"/>
<text x="828" y="410.0" font-size="12" fill="#000" text-anchor="end" font-weight="bold" font-style="italic"></text>
<text x="746" y="408" font-size="12" fill="#000" text-anchor="start" font-weight="bold" font-style="normal">y<tspan font-size="8" dy="4">b</tspan><tspan font-size="12" dy="-4"> </tspan> = 900</text>
<circle cx="960" cy="440" r="7" fill="#c00"/>
<circle cx="1285" cy="440" r="7" fill="#c00"/>
<line x1="1068" y1="440" x2="1068" y2="470" stroke="#000" stroke-width="1.3" marker-start="url(#arS)" marker-end="url(#arS)"/>
<line x1="1062" y1="440" x2="1074" y2="440" stroke="#000" stroke-width="1.3"/>
<line x1="1062" y1="470" x2="1074" y2="470" stroke="#000" stroke-width="1.3"/>
<text x="1076" y="460.0" font-size="12" fill="#000" text-anchor="start" font-weight="bold" font-style="italic">150</text>
<line x1="1116" y1="340" x2="1116" y2="440" stroke="#000" stroke-width="1.3" marker-start="url(#arS)" marker-end="url(#arS)"/>
<line x1="1110" y1="340" x2="1122" y2="340" stroke="#000" stroke-width="1.3"/>
<line x1="1110" y1="440" x2="1122" y2="440" stroke="#000" stroke-width="1.3"/>
<text x="1124" y="395.0" font-size="12" fill="#000" text-anchor="start" font-weight="bold" font-style="italic">e = 750</text>
<line x1="960" y1="440" x2="1120" y2="440" stroke="#888" stroke-width="1" stroke-dasharray="3 3"/>
<text x="960" y="526" font-size="11" fill="#c00" text-anchor="middle" font-weight="bold" font-style="normal">● 긴장재 도심</text>
<rect x="90" y="560" width="640" height="108" fill="#f7f7f7" stroke="#000" stroke-width="1.6" rx="0"/>
<text x="108" y="586" font-size="13" fill="#000" text-anchor="start" font-weight="bold" font-style="normal">〈단면 제원〉</text>
<text x="108" y="610" font-size="13" fill="#000" text-anchor="start" font-weight="normal" font-style="normal">합성 전:  A = 800,000 mm<tspan font-size="8" dy="-5">2</tspan><tspan font-size="12" dy="5"> </tspan>   ·   I = 360×10<tspan font-size="8" dy="-5">9</tspan><tspan font-size="12" dy="5"> </tspan> mm<tspan font-size="8" dy="-5">4</tspan><tspan font-size="12" dy="5"> </tspan>   ·   y<tspan font-size="8" dy="4">b</tspan><tspan font-size="12" dy="-4"> </tspan> = 900 mm</text>
<text x="108" y="634" font-size="13" fill="#000" text-anchor="start" font-weight="normal" font-style="normal">합성 후:  S<tspan font-size="8" dy="4">cb</tspan><tspan font-size="12" dy="-4"> </tspan> = 500×10<tspan font-size="8" dy="-5">6</tspan><tspan font-size="12" dy="5"> </tspan> mm<tspan font-size="8" dy="-5">3</tspan><tspan font-size="12" dy="5"> </tspan> (하연 단면계수)</text>
<text x="108" y="656" font-size="12" fill="#444" text-anchor="start" font-weight="normal" font-style="normal">긴장재 도심: 하연에서 150 mm  →  e = 750 mm (전 구간 일정)</text>
<rect x="760" y="560" width="590" height="108" fill="#f7f7f7" stroke="#000" stroke-width="1.6" rx="0"/>
<text x="778" y="586" font-size="13" fill="#000" text-anchor="start" font-weight="bold" font-style="normal">〈하중 단계와 저항 단면〉</text>
<text x="778" y="610" font-size="13" fill="#000" text-anchor="start" font-weight="normal" font-style="normal">① w<tspan font-size="8" dy="4">1</tspan><tspan font-size="12" dy="-4"> </tspan> = 25 kN/m  (자중+바닥판)  →  합성 전 단면이 부담</text>
<text x="778" y="634" font-size="13" fill="#000" text-anchor="start" font-weight="normal" font-style="normal">② w<tspan font-size="8" dy="4">2</tspan><tspan font-size="12" dy="-4"> </tspan> = 8 kN/m  (합성 후 고정하중)  →  합성 후 단면이 부담</text>
<text x="778" y="656" font-size="13" fill="#000" text-anchor="start" font-weight="normal" font-style="normal">③ M<tspan font-size="8" dy="4">L</tspan><tspan font-size="12" dy="-4"> </tspan> = 2,400 kN·m  (활하중, 충격 포함)  →  합성 후 단면이 부담</text>
<line x1="736" y1="120" x2="736" y2="520" stroke="#ccc" stroke-width="1" stroke-dasharray="5 5"/>
</svg>
