<svg xmlns="http://www.w3.org/2000/svg" viewBox="0 0 1506 700" font-family="Noto Sans CJK KR, NanumGothic, sans-serif">
<defs><pattern id="hz" width="8" height="8" patternTransform="rotate(45)"
 patternUnits="userSpaceOnUse"><line x1="0" y1="0" x2="0" y2="8" stroke="#000" stroke-width="1"/></pattern><marker id="ar" viewBox="0 0 10 10" refX="9" refY="5" markerWidth="7" markerHeight="7"
 orient="auto-start-reverse"><path d="M0,0 L10,5 L0,10 z" fill="#000"/></marker>
<marker id="arS" viewBox="0 0 10 10" refX="9" refY="5" markerWidth="5" markerHeight="5"
 orient="auto-start-reverse"><path d="M0,0 L10,5 L0,10 z" fill="#000"/></marker>
<marker id="tk" viewBox="0 0 10 10" refX="5" refY="5" markerWidth="6" markerHeight="6"
 orient="auto"><line x1="2" y1="8" x2="8" y2="2" stroke="#000" stroke-width="1.6"/></marker></defs>
<rect width="1506" height="700" fill="#fff"/>
<text x="70" y="38" font-size="19" fill="#000" font-weight="bold">139-3-B-P01  전단경간비(a/d) 비교 — 부재 4종 개념도</text>
<text x="70" y="60" font-size="12" fill="#444">각 패널은 해당 부재의 a : d 비가 표기값과 일치하도록 작도 · (라)는 유효깊이가 큰 부재로 별도 축척</text>
<rect x="100" y="228" width="16" height="210" fill="url(#hz)" stroke="#000" stroke-width="1.5" rx="0"/>
<line x1="116" y1="228" x2="116" y2="438" stroke="#000" stroke-width="2.5"/>
<text x="82" y="462" font-size="12" fill="#444" text-anchor="middle" font-weight="normal" font-style="normal">기둥</text>
<polygon points="116,320 181,320 181,348 116,370" fill="#fff" stroke="#000" stroke-width="2"/>
<line x1="151" y1="254" x2="151" y2="316" stroke="#000" stroke-width="2.4" marker-end="url(#ar)"/>
<text x="151" y="246" font-size="14" fill="#000" text-anchor="middle" font-weight="bold" font-style="normal">P</text>
<line x1="116" y1="486" x2="151" y2="486" stroke="#000" stroke-width="1.3"/>
<line x1="116" y1="486" x2="151" y2="486" stroke="#000" stroke-width="1.3" marker-start="url(#arS)" marker-end="url(#arS)"/>
<line x1="116" y1="480" x2="116" y2="492" stroke="#000" stroke-width="1.3"/>
<line x1="151" y1="480" x2="151" y2="492" stroke="#000" stroke-width="1.3"/>
<text x="133.5" y="479.7" font-size="13" fill="#000" text-anchor="middle" font-weight="bold" font-style="italic">a</text>
<line x1="116" y1="320" x2="227" y2="320" stroke="#888" stroke-width="1" stroke-dasharray="4 3"/>
<line x1="116" y1="370" x2="227" y2="370" stroke="#888" stroke-width="1" stroke-dasharray="4 3"/>
<line x1="219" y1="320" x2="219" y2="370" stroke="#000" stroke-width="1.3" marker-start="url(#arS)" marker-end="url(#arS)"/>
<line x1="213" y1="320" x2="225" y2="320" stroke="#000" stroke-width="1.3"/>
<line x1="213" y1="370" x2="225" y2="370" stroke="#000" stroke-width="1.3"/>
<text x="227" y="350.0" font-size="13" fill="#000" text-anchor="start" font-weight="bold" font-style="italic">d</text>
<text x="219" y="392" font-size="10" fill="#444" text-anchor="middle" font-weight="normal" font-style="normal">(기둥면 기준)</text>
<line x1="116" y1="460" x2="116" y2="370" stroke="#888" stroke-width="1" stroke-dasharray="3 3"/>
<line x1="151" y1="460" x2="151" y2="316" stroke="#888" stroke-width="1" stroke-dasharray="3 3"/>
<text x="116" y="516" font-size="11" fill="#444" text-anchor="middle" font-weight="normal" font-style="normal">지점 = 기둥면(고정)</text>
<text x="136" y="128" font-size="15" fill="#000" text-anchor="middle" font-weight="bold" font-style="normal">(가) 코벨</text>
<text x="136" y="154" font-size="14" fill="#000" text-anchor="middle" font-weight="normal" font-style="normal">a/d = 0.7</text>
<rect x="333" y="320" width="166" height="50" fill="#fff" stroke="#000" stroke-width="2" rx="0"/>
<polygon points="367,370 356,386.5 378,386.5" fill="none" stroke="#000" stroke-width="2"/>
<line x1="350.5" y1="386.5" x2="383.5" y2="386.5" stroke="#000" stroke-width="2"/>
<rect x="433" y="250" width="48" height="70" fill="url(#hz)" stroke="#000" stroke-width="1.8" rx="0"/>
<text x="489" y="276" font-size="11" fill="#444" text-anchor="start" font-weight="normal" font-style="normal">상부 벽체</text>
<line x1="457" y1="214" x2="457" y2="246" stroke="#000" stroke-width="2.4" marker-end="url(#ar)"/>
<text x="457" y="206" font-size="14" fill="#000" text-anchor="middle" font-weight="bold" font-style="normal">P</text>
<polyline points="499,320 508,335.0 490,355.0 499,370" fill="none" stroke="#444" stroke-width="1.6"/>
<line x1="367" y1="486" x2="457" y2="486" stroke="#000" stroke-width="1.3"/>
<line x1="367" y1="486" x2="457" y2="486" stroke="#000" stroke-width="1.3" marker-start="url(#arS)" marker-end="url(#arS)"/>
<line x1="367" y1="480" x2="367" y2="492" stroke="#000" stroke-width="1.3"/>
<line x1="457" y1="480" x2="457" y2="492" stroke="#000" stroke-width="1.3"/>
<text x="412.0" y="479.7" font-size="13" fill="#000" text-anchor="middle" font-weight="bold" font-style="italic">a</text>
<line x1="311" y1="320" x2="311" y2="370" stroke="#000" stroke-width="1.3" marker-start="url(#arS)" marker-end="url(#arS)"/>
<line x1="305" y1="320" x2="317" y2="320" stroke="#000" stroke-width="1.3"/>
<line x1="305" y1="370" x2="317" y2="370" stroke="#000" stroke-width="1.3"/>
<text x="303" y="350.0" font-size="13" fill="#000" text-anchor="end" font-weight="bold" font-style="italic">d</text>
<line x1="367" y1="460" x2="367" y2="394" stroke="#888" stroke-width="1" stroke-dasharray="3 3"/>
<line x1="457" y1="460" x2="457" y2="370" stroke="#888" stroke-width="1" stroke-dasharray="3 3"/>
<text x="367" y="516" font-size="11" fill="#444" text-anchor="middle" font-weight="normal" font-style="normal">지점</text>
<text x="395.0" y="128" font-size="15" fill="#000" text-anchor="middle" font-weight="bold" font-style="normal">(나) 전이보</text>
<text x="395.0" y="154" font-size="14" fill="#000" text-anchor="middle" font-weight="normal" font-style="normal">a/d = 1.8</text>
<rect x="563" y="320" width="301" height="50" fill="#fff" stroke="#000" stroke-width="2" rx="0"/>
<polygon points="597,370 586,386.5 608,386.5" fill="none" stroke="#000" stroke-width="2"/>
<line x1="580.5" y1="386.5" x2="613.5" y2="386.5" stroke="#000" stroke-width="2"/>
<line x1="822" y1="254" x2="822" y2="316" stroke="#000" stroke-width="2.4" marker-end="url(#ar)"/>
<text x="822" y="246" font-size="14" fill="#000" text-anchor="middle" font-weight="bold" font-style="normal">P</text>
<polyline points="864,320 873,335.0 855,355.0 864,370" fill="none" stroke="#444" stroke-width="1.6"/>
<line x1="597" y1="486" x2="822" y2="486" stroke="#000" stroke-width="1.3"/>
<line x1="597" y1="486" x2="822" y2="486" stroke="#000" stroke-width="1.3" marker-start="url(#arS)" marker-end="url(#arS)"/>
<line x1="597" y1="480" x2="597" y2="492" stroke="#000" stroke-width="1.3"/>
<line x1="822" y1="480" x2="822" y2="492" stroke="#000" stroke-width="1.3"/>
<text x="709.5" y="479.7" font-size="13" fill="#000" text-anchor="middle" font-weight="bold" font-style="italic">a</text>
<line x1="541" y1="320" x2="541" y2="370" stroke="#000" stroke-width="1.3" marker-start="url(#arS)" marker-end="url(#arS)"/>
<line x1="535" y1="320" x2="547" y2="320" stroke="#000" stroke-width="1.3"/>
<line x1="535" y1="370" x2="547" y2="370" stroke="#000" stroke-width="1.3"/>
<text x="533" y="350.0" font-size="13" fill="#000" text-anchor="end" font-weight="bold" font-style="italic">d</text>
<line x1="597" y1="460" x2="597" y2="394" stroke="#888" stroke-width="1" stroke-dasharray="3 3"/>
<line x1="822" y1="460" x2="822" y2="316" stroke="#888" stroke-width="1" stroke-dasharray="3 3"/>
<text x="597" y="516" font-size="11" fill="#444" text-anchor="middle" font-weight="normal" font-style="normal">지점</text>
<text x="692.5" y="128" font-size="15" fill="#000" text-anchor="middle" font-weight="bold" font-style="normal">(다) 일반보</text>
<text x="692.5" y="154" font-size="14" fill="#000" text-anchor="middle" font-weight="normal" font-style="normal">a/d = 4.5</text>
<rect x="940" y="320" width="466" height="68" fill="#fff" stroke="#000" stroke-width="2" rx="0"/>
<rect x="1348" y="242" width="58" height="78" fill="url(#hz)" stroke="#000" stroke-width="1.8" rx="0"/>
<text x="1414" y="280" font-size="11" fill="#444" text-anchor="start" font-weight="normal" font-style="normal">기둥</text>
<line x1="1377" y1="204" x2="1377" y2="238" stroke="#000" stroke-width="2.4" marker-end="url(#ar)"/>
<text x="1377" y="196" font-size="14" fill="#000" text-anchor="middle" font-weight="bold" font-style="normal">P</text>
<line x1="940.0" y1="424" x2="940.0" y2="392" stroke="#000" stroke-width="1.6" marker-end="url(#arS)"/>
<line x1="986.6" y1="424" x2="986.6" y2="392" stroke="#000" stroke-width="1.6" marker-end="url(#arS)"/>
<line x1="1033.2" y1="424" x2="1033.2" y2="392" stroke="#000" stroke-width="1.6" marker-end="url(#arS)"/>
<line x1="1079.8" y1="424" x2="1079.8" y2="392" stroke="#000" stroke-width="1.6" marker-end="url(#arS)"/>
<line x1="1126.4" y1="424" x2="1126.4" y2="392" stroke="#000" stroke-width="1.6" marker-end="url(#arS)"/>
<line x1="1173.0" y1="424" x2="1173.0" y2="392" stroke="#000" stroke-width="1.6" marker-end="url(#arS)"/>
<line x1="1219.6" y1="424" x2="1219.6" y2="392" stroke="#000" stroke-width="1.6" marker-end="url(#arS)"/>
<line x1="1266.2" y1="424" x2="1266.2" y2="392" stroke="#000" stroke-width="1.6" marker-end="url(#arS)"/>
<line x1="1312.8" y1="424" x2="1312.8" y2="392" stroke="#000" stroke-width="1.6" marker-end="url(#arS)"/>
<line x1="1359.4" y1="424" x2="1359.4" y2="392" stroke="#000" stroke-width="1.6" marker-end="url(#arS)"/>
<line x1="1406.0" y1="424" x2="1406.0" y2="392" stroke="#000" stroke-width="1.6" marker-end="url(#arS)"/>
<line x1="932" y1="424" x2="1412" y2="424" stroke="#000" stroke-width="1.6"/>
<text x="1173.0" y="446" font-size="11" fill="#444" text-anchor="middle" font-weight="normal" font-style="normal">지반반력 (지점)</text>
<line x1="1348" y1="486" x2="940" y2="486" stroke="#000" stroke-width="1.3"/>
<line x1="1348" y1="486" x2="940" y2="486" stroke="#000" stroke-width="1.3" marker-start="url(#arS)" marker-end="url(#arS)"/>
<line x1="1348" y1="480" x2="1348" y2="492" stroke="#000" stroke-width="1.3"/>
<line x1="940" y1="480" x2="940" y2="492" stroke="#000" stroke-width="1.3"/>
<text x="1144.0" y="479.7" font-size="13" fill="#000" text-anchor="middle" font-weight="bold" font-style="italic">a</text>
<line x1="916" y1="320" x2="916" y2="388" stroke="#000" stroke-width="1.3" marker-start="url(#arS)" marker-end="url(#arS)"/>
<line x1="910" y1="320" x2="922" y2="320" stroke="#000" stroke-width="1.3"/>
<line x1="910" y1="388" x2="922" y2="388" stroke="#000" stroke-width="1.3"/>
<text x="908" y="359.0" font-size="13" fill="#000" text-anchor="end" font-weight="bold" font-style="italic">d</text>
<line x1="940" y1="460" x2="940" y2="424" stroke="#888" stroke-width="1" stroke-dasharray="3 3"/>
<line x1="1348" y1="460" x2="1348" y2="320" stroke="#888" stroke-width="1" stroke-dasharray="3 3"/>
<text x="1144.0" y="128" font-size="15" fill="#000" text-anchor="middle" font-weight="bold" font-style="normal">(라) 대형 무근 확대기초</text>
<text x="1144.0" y="154" font-size="14" fill="#000" text-anchor="middle" font-weight="normal" font-style="normal">a/d = 6.0 · 유효깊이 d 가 큰 부재 (1방향 전단 검토)</text>
<line x1="293" y1="108" x2="293" y2="540" stroke="#ccc" stroke-width="1" stroke-dasharray="5 5"/>
<line x1="523" y1="108" x2="523" y2="540" stroke="#ccc" stroke-width="1" stroke-dasharray="5 5"/>
<line x1="888" y1="108" x2="888" y2="540" stroke="#ccc" stroke-width="1" stroke-dasharray="5 5"/>
<line x1="62" y1="554" x2="1444" y2="554" stroke="#888" stroke-width="1"/>
<text x="62" y="580" font-size="12" fill="#000" text-anchor="start" font-weight="bold" font-style="normal">동일 d 기준 a 길이 비교</text>
<text x="238" y="572" font-size="11" fill="#444" text-anchor="end" font-weight="normal" font-style="normal">(가) 0.7</text>
<rect x="250" y="561" width="20" height="12" fill="#000" stroke="#000" stroke-width="0" rx="0"/>
<text x="238" y="594" font-size="11" fill="#444" text-anchor="end" font-weight="normal" font-style="normal">(나) 1.8</text>
<rect x="250" y="583" width="50" height="12" fill="#000" stroke="#000" stroke-width="0" rx="0"/>
<text x="238" y="616" font-size="11" fill="#444" text-anchor="end" font-weight="normal" font-style="normal">(다) 4.5</text>
<rect x="250" y="605" width="126" height="12" fill="#000" stroke="#000" stroke-width="0" rx="0"/>
<text x="238" y="638" font-size="11" fill="#444" text-anchor="end" font-weight="normal" font-style="normal">(라) 6.0</text>
<rect x="250" y="627" width="168" height="12" fill="#000" stroke="#000" stroke-width="0" rx="0"/>
<text x="434" y="616" font-size="11" fill="#444" text-anchor="start" font-weight="normal" font-style="normal">← a/d 값에 비례한 상대 길이 (동일 d 가정)</text>
<text x="62" y="674" font-size="12" fill="#444" text-anchor="start" font-weight="normal" font-style="normal">a = 전단경간(지점면 ~ 집중하중 위치) · d = 유효깊이 · 전 부재 전단보강 없음(문제 조건)</text>
</svg>
